<svg width="97" height="96" viewBox="0 0 97 96" fill="none" xmlns="http://www.w3.org/2000/svg">
<rect x="1.37109" y="0.5" width="95" height="95" rx="47.5" fill="white"/>
<rect x="1.37109" y="0.5" width="95" height="95" rx="47.5" stroke="#DFE0E4"/>
<path d="M39.5374 74.6417H30.2889C28.5919 74.6417 27.2344 73.2842 27.2344 71.5872V54.9569C27.2344 53.2599 28.5919 51.9023 30.2889 51.9023H39.5374C40.0465 51.9023 40.3859 52.2417 40.3859 52.7508V73.7933C40.3859 74.3023 40.0465 74.6417 39.5374 74.6417ZM30.2889 53.5993C29.5253 53.5993 28.9313 54.1933 28.9313 54.9569V71.5872C28.9313 72.3508 29.5253 72.9448 30.2889 72.9448H38.6889V53.5993H30.2889Z" fill="#9B041E"/>
<path d="M67.1132 57.9267H65.4163C64.9072 57.9267 64.5678 57.5873 64.5678 57.0783C64.5678 56.5692 64.9072 56.2298 65.4163 56.2298H67.1132C68.2163 56.2298 69.1496 55.2964 69.1496 54.1934C69.1496 53.0904 68.2163 52.157 67.1132 52.157H50.3981C50.1435 52.157 49.889 51.9873 49.7193 51.8176C49.5496 51.5631 49.5496 51.3086 49.6344 51.054C50.8223 48.254 51.2466 45.9631 50.9072 43.9267V43.8419C50.9072 40.957 48.7859 38.5813 45.9859 38.2419C45.3072 44.7752 43.3556 50.4601 40.0466 55.551C39.792 55.9752 39.2829 56.0601 38.8587 55.8055C38.4344 55.551 38.3496 55.0419 38.6041 54.6176C41.9132 49.6116 43.7799 43.9267 44.289 37.3086C44.289 36.8843 44.7132 36.5449 45.1375 36.5449C49.2102 36.5449 52.5193 39.854 52.5193 43.8419C52.7738 45.8783 52.5193 48.0843 51.5859 50.6298H67.0284C69.1496 50.6298 70.7617 52.2419 70.7617 54.3631C70.8466 56.3146 69.2344 57.9267 67.1132 57.9267Z" fill="#9B041E"/>
<path d="M66.2652 63.6952H64.5682C64.0591 63.6952 63.7197 63.3558 63.7197 62.8467C63.7197 62.3376 64.0591 61.9982 64.5682 61.9982H66.2652C67.3682 61.9982 68.3015 61.0649 68.3015 59.9618C68.3015 58.8588 67.3682 57.9255 66.2652 57.9255C65.7561 57.9255 65.4167 57.5861 65.4167 57.077C65.4167 56.5679 65.7561 56.2285 66.2652 56.2285C68.3864 56.2285 69.9985 57.8406 69.9985 59.9618C69.9985 62.0831 68.3864 63.6952 66.2652 63.6952Z" fill="#9B041E"/>
<path d="M65.3315 69.4667H63.6345C63.1255 69.4667 62.7861 69.1273 62.7861 68.6182C62.7861 68.1091 63.1255 67.7697 63.6345 67.7697H65.3315C66.4345 67.7697 67.3679 66.8364 67.3679 65.6485C67.3679 64.3758 66.6891 63.697 65.3315 63.697C64.8224 63.697 64.483 63.3576 64.483 62.8485C64.483 62.3394 64.8224 62 65.3315 62C67.5376 62 68.98 63.2727 69.0648 65.4788V65.903C68.8951 67.8545 67.283 69.4667 65.3315 69.4667Z" fill="#9B041E"/>
<path d="M64.4834 75.1507H44.2046C43.1016 75.1507 42.1683 74.8961 41.2349 74.4719L39.1986 73.4537C38.7743 73.284 38.6046 72.7749 38.8592 72.3507C39.0289 71.9264 39.538 71.7567 39.9622 72.0113L41.9986 73.0295C42.6774 73.3689 43.441 73.5386 44.2895 73.5386H64.5683C65.6713 73.5386 66.6046 72.6052 66.6046 71.5022C66.6046 70.3992 65.6713 69.4658 64.5683 69.4658C64.0592 69.4658 63.7198 69.1264 63.7198 68.6174C63.7198 68.1083 64.0592 67.7689 64.5683 67.7689C66.6895 67.7689 68.3016 69.381 68.3016 71.5022C68.2168 73.5386 66.6046 75.1507 64.4834 75.1507ZM36.4834 71.078H31.138C30.6289 71.078 30.2895 70.7386 30.2895 70.2295C30.2895 69.7204 30.6289 69.381 31.138 69.381H36.4834C36.9925 69.381 37.3319 69.7204 37.3319 70.2295C37.3319 70.7386 36.9925 71.078 36.4834 71.078ZM51.1622 33.9992C50.9925 33.9992 50.8228 33.9992 50.738 33.9143L47.5986 32.0477L44.2046 33.6598C43.9501 33.8295 43.5258 33.7446 43.2713 33.5749C43.0168 33.4052 42.9319 33.0658 43.0168 32.7264L43.8652 29.078L41.3198 26.4477C41.0652 26.1931 40.9804 25.8537 41.1501 25.5992C41.2349 25.2598 41.5743 25.0901 41.8289 25.0052L45.4774 24.581L47.1743 21.3568C47.344 21.0174 47.6834 20.8477 47.938 20.8477C48.2774 20.8477 48.5319 21.0174 48.7016 21.3568L50.2289 24.7507L53.8774 25.4295C54.2168 25.5143 54.4713 25.684 54.5562 26.0234C54.641 26.3628 54.5562 26.7022 54.3016 26.8719L51.5865 29.3325L52.0107 33.0658C52.0107 33.4052 51.9258 33.7446 51.6713 33.9143C51.5016 33.9143 51.3319 33.9992 51.1622 33.9992ZM47.5986 30.181C47.7683 30.181 47.938 30.181 48.0228 30.2658L50.0592 31.5386L49.7198 29.078C49.7198 28.8234 49.8046 28.484 49.9743 28.3143L51.841 26.7871L49.4652 26.3628C49.2107 26.278 48.9562 26.1083 48.8713 25.8537L47.8531 23.6477L46.7501 25.7689C46.5804 26.0234 46.4107 26.1931 46.0713 26.1931L43.6955 26.4477L45.3925 28.1446C45.5622 28.3143 45.6471 28.6537 45.6471 28.9083L45.138 31.284L47.344 30.2658C47.344 30.181 47.5137 30.181 47.5986 30.181ZM36.9925 39.2598C36.8228 39.2598 36.6531 39.2598 36.5683 39.1749L33.4289 37.3083L30.035 38.9204C29.7804 39.0901 29.3562 39.0052 29.1016 38.8355C28.8471 38.6658 28.7622 38.3264 28.8471 37.9871L29.6956 34.4234L27.1501 31.7083C26.8956 31.4537 26.8956 31.1143 26.9804 30.8598C26.9804 30.4355 27.235 30.181 27.5744 30.181L31.3077 29.8416L33.0046 26.6174C33.1743 26.3628 33.5137 26.1931 33.7683 26.1931C34.1077 26.1931 34.3622 26.3628 34.5319 26.7022L36.0592 30.0961L39.7077 30.7749C40.0471 30.8598 40.3016 31.0295 40.3865 31.3689C40.4713 31.7083 40.3865 32.0477 40.1319 32.2174L37.4168 34.7628L37.841 38.4113C37.841 38.7507 37.7562 39.0901 37.5016 39.2598C37.3319 39.1749 37.1622 39.2598 36.9925 39.2598ZM33.4289 35.4416C33.5986 35.4416 33.7683 35.4416 33.8531 35.5264L35.8895 36.7992L35.6349 34.4234C35.6349 34.1689 35.7198 33.9143 35.8895 33.6598L37.6713 32.0477L35.2955 31.6234C35.041 31.5386 34.7865 31.3689 34.7016 31.1143L33.6834 28.9083L32.5804 31.0295C32.4107 31.284 32.241 31.4537 31.9016 31.4537L29.441 31.7083L31.138 33.4901C31.3077 33.6598 31.3925 33.9992 31.3077 34.2537L30.7986 36.5446L33.0046 35.5264C33.1743 35.4416 33.344 35.4416 33.4289 35.4416ZM65.6713 39.2598C65.5016 39.2598 65.3319 39.2598 65.2471 39.1749L62.1077 37.3083L58.7986 38.9204C58.544 39.0901 58.1198 39.0052 57.9501 38.8355C57.6955 38.6658 57.6107 38.3264 57.6107 37.9871L58.3743 34.4234L55.8289 31.7083C55.5743 31.4537 55.5743 31.1143 55.6592 30.8598C55.744 30.5204 56.0834 30.3507 56.338 30.3507L59.9865 30.0113L61.7683 26.7871C61.938 26.5325 62.1925 26.3628 62.5319 26.3628C62.8713 26.3628 63.1258 26.6174 63.2955 26.8719L64.738 30.2658L68.3865 30.9446C68.7258 31.0295 68.9804 31.1992 69.0652 31.5386C69.1501 31.878 69.0652 32.2174 68.8107 32.3871L66.0955 34.9325L66.5198 38.581C66.5198 38.9204 66.4349 39.2598 66.1804 39.4295C66.0107 39.1749 65.841 39.2598 65.6713 39.2598ZM62.1077 35.4416C62.2774 35.4416 62.4471 35.4416 62.5319 35.5264L64.5683 36.7992L64.3137 34.4234C64.3137 34.1689 64.3986 33.9143 64.5683 33.6598L66.3501 32.0477L63.9743 31.6234C63.7198 31.5386 63.4652 31.3689 63.3804 31.1143L62.4471 28.9083L61.2592 31.0295C61.0895 31.284 60.9198 31.4537 60.5804 31.4537L58.2046 31.7083L59.9016 33.4901C60.0713 33.6598 60.1562 33.9992 60.0713 34.2537L59.5622 36.5446L61.7683 35.5264C61.8531 35.4416 62.0228 35.4416 62.1077 35.4416Z" fill="#9B041E"/>
</svg>
